<svg xmlns="http://www.w3.org/2000/svg" xmlns:xlink="http://www.w3.org/1999/xlink" viewBox="0 0 372.06 489.88"><defs><style>.a,.am,.ao,.c{fill:none;}.b{clip-path:url(#a);}.am,.ao,.c{stroke:#231f20;stroke-miterlimit:10;}.c{stroke-width:0.76px;}.d,.m,.u{font-size:7.94px;font-family:MyriadPro-Regular, Myriad Pro;}.an,.d,.m,.u{fill:#231f20;}.e{letter-spacing:-0.02em;}.f{letter-spacing:0em;}.g{letter-spacing:0.03em;}.h{letter-spacing:0em;}.i{letter-spacing:-0.01em;}.j{letter-spacing:0em;}.k,.m{letter-spacing:0em;}.l{letter-spacing:0em;}.n{letter-spacing:0.01em;}.o{letter-spacing:0.02em;}.p{letter-spacing:-0.01em;}.q{letter-spacing:-0.01em;}.r{letter-spacing:0em;}.s{letter-spacing:0em;}.t{letter-spacing:-0.01em;}.u{letter-spacing:0em;}.v{letter-spacing:0em;}.w{letter-spacing:-0.01em;}.x{letter-spacing:0em;}.y{letter-spacing:0em;}.z{letter-spacing:0em;}.aa{letter-spacing:0.02em;}.ab{letter-spacing:-0.02em;}.ac{letter-spacing:0em;}.ad{letter-spacing:-0.01em;}.ae{letter-spacing:-0.01em;}.af{letter-spacing:0.01em;}.ag{letter-spacing:-0.03em;}.ah{letter-spacing:-0.02em;}.ai{letter-spacing:-0.01em;}.aj{letter-spacing:-0.01em;}.ak{letter-spacing:0.02em;}.al{letter-spacing:0em;}.am{stroke-width:0.38px;}.ao{stroke-width:0.19px;}.ap{letter-spacing:0em;}.aq{letter-spacing:-0.01em;}</style><clipPath id="a" transform="translate(-105.49 -198.75)"><rect class="a" x="105.49" y="198.75" width="372.06" height="489.88"/></clipPath></defs><g class="b"><rect class="a" x="265.85" y="230.01" width="72.2" height="121.2"/><rect class="c" x="265.85" y="230.01" width="72.2" height="121.2"/><rect class="a" x="265.85" y="230.01" width="72.2" height="20.59"/><rect class="c" x="265.85" y="230.01" width="72.2" height="20.59"/><text class="d" transform="translate(287.01 241.1)"><tspan class="e">P</tspan><tspan x="4.03" y="0">erson</tspan></text><text class="d" transform="translate(285.21 272.49)">Name</text><text class="d" transform="translate(285.21 282.02)">Su<tspan class="f" x="8.29" y="0">r</tspan><tspan x="10.91" y="0">name</tspan></text><text class="d" transform="translate(285.21 291.54)"><tspan class="g">e</tspan><tspan x="4.2" y="0">-mail</tspan></text><text class="d" transform="translate(285.21 301.07)"><tspan class="h">P</tspan><tspan x="4.19" y="0">hone</tspan></text><text class="d" transform="translate(285.21 310.6)"><tspan class="h">P</tspan><tspan x="4.19" y="0">ho</tspan><tspan class="i" x="12.96" y="0">t</tspan><tspan class="j" x="15.54" y="0">o</tspan></text><text class="d" transform="translate(285.21 320.13)"><tspan class="k">D</tspan><tspan x="5.32" y="0">esc</tspan><tspan class="l" x="16" y="0">r</tspan><tspan x="18.63" y="0">iption</tspan></text><text class="m" transform="translate(285.21 329.65)">R<tspan class="j" x="4.3" y="0">ole</tspan></text><text class="d" transform="translate(285.21 339.18)"><tspan class="n">M</tspan><tspan x="6.43" y="0">ain se</tspan><tspan class="o" x="25.33" y="0">r</tspan><tspan x="28.11" y="0">vi</tspan><tspan class="i" x="33.79" y="0">c</tspan><tspan class="j" x="37.31" y="0">e</tspan></text><rect class="a" x="10.06" y="224.43" width="72.2" height="121.2"/><rect class="c" x="10.06" y="224.43" width="72.2" height="121.2"/><rect class="a" x="10.06" y="224.43" width="72.2" height="20.59"/><rect class="c" x="10.06" y="224.43" width="72.2" height="20.59"/><text class="d" transform="translate(31.22 235.52)"><tspan class="p">E</tspan><tspan class="q" x="3.86" y="0">v</tspan><tspan x="7.61" y="0">e</tspan><tspan class="r" x="11.58" y="0">n</tspan><tspan x="15.97" y="0">t</tspan></text><text class="d" transform="translate(20.67 270.38)">Name</text><text class="d" transform="translate(20.67 279.91)">D<tspan class="s" x="5.29" y="0">a</tspan><tspan class="p" x="9.09" y="0">t</tspan><tspan x="11.67" y="0">e</tspan></text><text class="d" transform="translate(20.67 289.43)"><tspan class="t">L</tspan><tspan x="3.64" y="0">oc</tspan><tspan class="s" x="11.56" y="0">a</tspan><tspan x="15.36" y="0">tion</tspan></text><text class="u" transform="translate(20.67 298.96)">P<tspan class="v" x="4.19" y="0">ho</tspan><tspan class="w" x="12.96" y="0">t</tspan><tspan class="x" x="15.54" y="0">os (1)</tspan></text><text class="d" transform="translate(20.67 308.49)"><tspan class="y">M</tspan><tspan x="6.42" y="0">ap</tspan></text><text class="d" transform="translate(20.67 318.02)"><tspan class="z">D</tspan><tspan x="5.32" y="0">esc</tspan><tspan class="z" x="16" y="0">r</tspan><tspan class="x" x="18.63" y="0">iption</tspan></text><text class="d" transform="translate(20.67 327.54)"><tspan class="y">S</tspan><tspan class="v" x="3.95" y="0">e</tspan><tspan class="aa" x="7.93" y="0">r</tspan><tspan x="10.73" y="0">vi</tspan><tspan class="i" x="16.4" y="0">c</tspan><tspan x="19.92" y="0">e id</tspan></text><text class="d" transform="translate(20.67 337.07)"><tspan class="ab">P</tspan><tspan x="4.03" y="0">erson id</tspan></text><rect class="a" x="10.06" y="368.31" width="72.2" height="121.2"/></g><g class="b"><rect class="c" x="10.06" y="368.31" width="72.2" height="121.2"/></g><g class="b"><rect class="a" x="10.06" y="368.31" width="72.2" height="20.59"/><rect class="c" x="10.06" y="368.31" width="72.2" height="20.59"/><text class="d" transform="translate(31.22 379.39)"><tspan class="ac">U</tspan><tspan x="5.1" y="0">ser</tspan></text><text class="d" transform="translate(20.67 414.26)"><tspan class="ac">U</tspan><tspan x="5.1" y="0">se</tspan><tspan class="z" x="12.22" y="0">r</tspan><tspan x="14.85" y="0">name</tspan></text><text class="d" transform="translate(20.67 423.78)">email</text><text class="d" transform="translate(20.67 433.31)">pass<tspan class="q" x="14.63" y="0">w</tspan><tspan x="20.4" y="0">o</tspan><tspan class="ad" x="24.76" y="0">r</tspan><tspan x="27.28" y="0">d</tspan></text><rect class="a" x="105.76" y="368.31" width="72.2" height="121.2"/></g><g class="b"><rect class="c" x="105.76" y="368.31" width="72.2" height="121.2"/></g><g class="b"><rect class="a" x="105.76" y="368.31" width="72.2" height="20.59"/><rect class="c" x="105.76" y="368.31" width="72.2" height="20.59"/><text class="d" transform="translate(124.16 379.39)">Ne<tspan class="ac" x="9.2" y="0">w</tspan><tspan x="15.01" y="0">slet</tspan><tspan class="p" x="26.63" y="0">t</tspan><tspan x="29.21" y="0">er</tspan></text><text class="d" transform="translate(116.37 414.25)">Email</text><rect class="a" x="202.71" y="368.31" width="72.2" height="121.2"/></g><g class="b"><rect class="c" x="202.71" y="368.31" width="72.2" height="121.2"/></g><g class="b"><rect class="a" x="202.71" y="368.31" width="72.2" height="20.59"/><rect class="c" x="202.71" y="368.31" width="72.2" height="20.59"/><text class="d" transform="translate(216.36 379.39)"><tspan class="ae">C</tspan><tspan x="4.53" y="0">o</tspan><tspan class="h" x="8.88" y="0">n</tspan><tspan x="13.26" y="0">ta</tspan><tspan class="af" x="19.71" y="0">c</tspan><tspan x="23.37" y="0">t </tspan><tspan class="ag" x="27.68" y="0">F</tspan><tspan class="j" x="31.31" y="0">o</tspan><tspan class="l" x="35.67" y="0">r</tspan><tspan x="38.3" y="0">m</tspan></text><text class="d" transform="translate(213.32 414.26)">Name</text><text class="d" transform="translate(213.32 423.78)">email</text><text class="d" transform="translate(213.32 433.31)">Subje<tspan class="af" x="18.71" y="0">c</tspan><tspan x="22.37" y="0">t </tspan></text><text class="d" transform="translate(213.32 442.84)"><tspan class="n">M</tspan><tspan x="6.43" y="0">essage</tspan></text><rect class="a" x="141.51" y="0.38" width="72.2" height="121.2"/></g><g class="b"><rect class="c" x="141.51" y="0.38" width="72.2" height="121.2"/></g><g class="b"><rect class="a" x="141.51" y="0.38" width="72.2" height="20.58"/></g><g class="b"><rect class="c" x="141.51" y="0.38" width="72.2" height="20.59"/></g><g class="b"><text class="d" transform="translate(287.01 85.58)"><tspan class="ah">P</tspan><tspan class="q" x="4.1" y="0">r</tspan><tspan class="ai" x="6.62" y="0">o</tspan><tspan x="10.92" y="0">vided</tspan></text><text class="d" transform="translate(309.41 224.43)">(1,3)</text><text class="d" transform="translate(354.64 322.99)">(5,5)</text><text class="d" transform="translate(291.42 365.59)">(5,5)</text><text class="d" transform="translate(249.27 287.84)">(0,5)</text><text class="d" transform="translate(86.91 287.84)">(1,1)</text><text class="d" transform="translate(217.65 69.31)">(1,10)</text><text class="d" transform="translate(122.78 69.31)">(1,5)</text><text class="d" transform="translate(31.23 214.5)">(1,1)</text><text class="d" transform="translate(159.5 296.37)">O<tspan class="aj" x="5.47" y="0">r</tspan><tspan x="8" y="0">ganise</tspan></text><text class="d" transform="translate(37.56 81.93)">Suppo<tspan class="ak" x="21.68" y="0">r</tspan><tspan x="24.47" y="0">t</tspan></text><text class="d" transform="translate(162.69 13.84)"><tspan class="n">S</tspan><tspan x="3.96" y="0">e</tspan><tspan class="ak" x="7.94" y="0">r</tspan><tspan x="10.73" y="0">vi</tspan><tspan class="ac" x="16.4" y="0">c</tspan><tspan x="19.92" y="0">e</tspan></text><text class="d" transform="translate(153.36 46.74)">Name</text><text class="d" transform="translate(153.36 56.27)"><tspan class="z">D</tspan><tspan x="5.32" y="0">esc</tspan><tspan class="al" x="16" y="0">r</tspan><tspan x="18.62" y="0">iption</tspan></text><text class="u" transform="translate(153.36 65.79)">P<tspan class="v" x="4.19" y="0">ho</tspan><tspan class="w" x="12.96" y="0">t</tspan><tspan class="x" x="15.54" y="0">o (1)</tspan></text><text class="d" transform="translate(153.36 75.32)">Subtitle</text></g><g class="b"><polygon class="am" points="105.75 81.92 51.86 52.25 0.38 81.92 51.86 111.59 105.75 81.92"/></g><g class="b"><polygon class="am" points="226.48 293.31 172.58 263.63 121.1 293.31 172.58 322.98 226.48 293.31"/></g><g class="b"><polygon class="am" points="371.67 403.91 338.94 385.89 307.69 403.91 338.94 421.92 371.67 403.91"/></g><g class="b"><polygon class="am" points="354.64 81.92 300.74 52.25 249.26 81.92 300.74 111.59 354.64 81.92"/><line class="am" x1="300.74" y1="111.6" x2="300.74" y2="230.01"/><line class="am" x1="121.1" y1="293.31" x2="82.26" y2="293.31"/><line class="am" x1="265.47" y1="293.31" x2="226.63" y2="293.31"/><line class="am" x1="105.76" y1="81.92" x2="141.04" y2="81.92"/><line class="am" x1="213.56" y1="81.92" x2="248.85" y2="81.92"/><line class="am" x1="51.86" y1="111.59" x2="51.86" y2="224.43"/><path class="an" d="M413.19,602.66v0Z" transform="translate(-105.49 -198.75)"/><line class="ao" x1="307.69" y1="351.21" x2="307.69" y2="403.91"/><polyline class="ao" points="371.67 403.91 371.67 327.26 338.06 327.26"/><text class="d" transform="translate(327.19 406.24)"><tspan class="k">R</tspan><tspan class="j" x="4.3" y="0">el</tspan><tspan class="ap" x="10.15" y="0">a</tspan><tspan class="aq" x="13.96" y="0">t</tspan><tspan x="16.54" y="0">ed</tspan></text></g></svg>